<svg xmlns="http://www.w3.org/2000/svg" xmlns:xlink="http://www.w3.org/1999/xlink"><defs>
<clipPath id="clip0">
<rect width="10" height="10" fill="white"/>
</clipPath>
</defs><symbol id="icon-cart" viewBox="0 0 10 10">
<g clip-path="url(#clip0)">
<path d="M9.86215 2.5217C9.79278 2.43991 9.69341 2.39316 9.58927 2.39316H7.65774V3.4188C7.65774 3.89008 7.25359 4.2735 6.75684 4.2735C6.26008 4.2735 5.85593 3.89008 5.85593 3.4188V2.39316H4.05413V3.4188C4.05413 3.89008 3.64999 4.2735 3.15323 4.2735C2.65648 4.2735 2.25233 3.89008 2.25233 3.4188V2.39316H0.32089C0.216656 2.39316 0.117286 2.43991 0.0479169 2.5217C-0.0215425 2.6035 -0.0544254 2.71256 -0.0425335 2.82145L0.605665 8.78461C0.617737 9.45692 1.14179 9.99999 1.78431 9.99999H8.12584C8.76828 9.99999 9.29233 9.45692 9.30449 8.78452L9.95269 2.82136C9.96449 2.71256 9.93161 2.6035 9.86215 2.5217Z"/>
<path d="M3.15333 3.76068C3.35207 3.76068 3.51369 3.60735 3.51369 3.4188V1.53846C3.51369 1.01051 4.07486 0.683761 4.59477 0.683761H5.49567C6.04288 0.683761 6.39657 1.01923 6.39657 1.53846V3.4188C6.39657 3.60735 6.55829 3.76068 6.75693 3.76068C6.95558 3.76068 7.11729 3.60735 7.11729 3.4188V1.53846C7.11729 0.647009 6.43531 0 5.49567 0H4.59477C3.60126 0 2.79297 0.690171 2.79297 1.53846V3.4188C2.79297 3.60735 2.95459 3.76068 3.15333 3.76068Z"/>
</g>

</symbol><symbol id="icon-check" viewBox="0 0 21 21">
<path fill-rule="evenodd" clip-rule="evenodd" d="M5.07692 8.75L3.38461 10.5L8.46154 15.75L16.9231 7L15.2308 5.25L8.46154 12.25L5.07692 8.75Z" fill="black"/>
</symbol><symbol id="icon-compare" viewBox="0 0 14 14">
<path d="M2.91675 5.36667H4.66675V11.0833H2.91675V5.36667ZM6.18342 2.91667H7.81675V11.0833H6.18342V2.91667ZM9.45008 7.58334H11.0834V11.0833H9.45008V7.58334Z"/>
</symbol><symbol id="icon-cross" viewBox="0 0 30 30">
<g opacity="0.7">
<path d="M22.95 24.725L15 16.7625L7.04996 24.725L5.27496 22.95L13.2375 15L5.27496 7.05002L7.04996 5.27502L15 13.2375L22.95 5.28752L24.7125 7.05002L16.7625 15L24.7125 22.95L22.95 24.725Z" fill="white"/>
</g>
</symbol><symbol id="icon-down-dir" viewBox="0 0 18 18">
<path d="M14 4L3 4L8.5 14L14 4Z" fill="black"/>
</symbol><symbol id="icon-fb" viewBox="0 0 32 32">
  <path fill="#fff" d="M16 0C7.164 0 0 7.163 0 16s7.164 16 16 16c8.837 0 16-7.164 16-16S24.837 0 16 0zm4.062 9.455h-3.021v3.444h3.021v3.445h-3.021v8.61H14.02v-8.61H11v-3.445h3.021V9.455c0-1.902 1.353-3.445 3.021-3.445h3.021v3.445z"/>
</symbol><symbol id="icon-filter-button" viewBox="0 0 20 23"><path opacity=".3" fill="#ABABAB" d="M10 20C4.477 20 0 15.522 0 10v2c0 5.522 4.477 10 10 10 5.522 0 10-4.478 10-10v-2c0 5.522-4.478 10-10 10z"/><circle fill="#FFF" cx="10" cy="10" r="10"/><circle fill="#ABABAB" cx="10" cy="10" r="2"/></symbol><symbol id="icon-instagram" viewBox="0 0 32 32"><g fill="#FFF"><path d="M20.916 16a4.938 4.938 0 1 1-9.877 0c0-.394.051-.773.138-1.14h-.897v6.838h11.396V14.86h-.897c.086.367.137.746.137 1.14z"/><path d="M15.978 18.659c1.466 0 2.659-1.193 2.659-2.659s-1.193-2.659-2.659-2.659c-1.466 0-2.659 1.193-2.659 2.659s1.192 2.659 2.659 2.659zM18.637 10.302h3.039v3.039h-3.039z"/><path d="M16 0C7.164 0 0 7.164 0 16c0 8.837 7.164 16 16 16 8.837 0 16-7.163 16-16 0-8.836-7.163-16-16-16zm7.955 21.698a2.285 2.285 0 0 1-2.279 2.279H10.279A2.285 2.285 0 0 1 8 21.698V10.302a2.286 2.286 0 0 1 2.279-2.279h11.396a2.286 2.286 0 0 1 2.279 2.279v11.396z"/></g></symbol><symbol id="icon-nav-arrow" viewBox="0 0 12 13">
<path d="M4.14749 8.94246L6.43749 6.64746L4.14749 4.35246L4.85249 3.64746L7.85249 6.64746L4.85249 9.64746L4.14749 8.94246Z" fill="black"/>
</symbol><symbol id="icon-new" viewBox="0 0 62 62">
<path d="M22.4 26.6H24.32V35H22.88L19.64 30.44V35H17.72V26.6H19.16L22.4 31.16V26.6ZM27.6791 33.152H31.0391V35H25.7591V26.6H30.9791V28.448H27.6791V29.84H30.6791V31.664H27.6791V33.152ZM33.8383 35L31.5223 26.6H33.5383L34.9903 32.48L36.6103 26.6H38.1703L39.7903 32.48L41.2423 26.6H43.2583L40.9423 35H38.7583L37.3903 30.044L36.0223 35H33.8383Z" fill="black" fill-opacity="0.3"/>
<circle cx="31" cy="31" r="30" stroke="black" stroke-opacity="0.3" stroke-width="2"/>
</symbol><symbol id="icon-plus" viewBox="0 0 22 22">
<path d="M18.7 9.89999V12.1H12.1V18.7H9.9V12.1H3.3V9.89999H9.9V3.29999H12.1V9.89999H18.7Z"/>
</symbol><symbol id="icon-radio-off" viewBox="0 0 24 24">
<circle cx="12" cy="12" r="11" stroke="black" stroke-width="2"/>
</symbol><symbol id="icon-radio-on" viewBox="0 0 24 24">
<circle cx="12" cy="12" r="11" stroke="black" stroke-width="2"/>
<circle cx="12" cy="12" r="4" fill="black"/>
</symbol><symbol id="icon-search" viewBox="0 0 16 16">
<path d="M6.66671 12C7.85003 11.9998 8.99924 11.6036 9.93137 10.8747L12.862 13.8053L13.8047 12.8627L10.874 9.932C11.6034 8.99977 11.9998 7.85029 12 6.66666C12 3.726 9.60737 1.33333 6.66671 1.33333C3.72604 1.33333 1.33337 3.726 1.33337 6.66666C1.33337 9.60733 3.72604 12 6.66671 12ZM6.66671 2.66666C8.87271 2.66666 10.6667 4.46066 10.6667 6.66666C10.6667 8.87266 8.87271 10.6667 6.66671 10.6667C4.46071 10.6667 2.66671 8.87266 2.66671 6.66666C2.66671 4.46066 4.46071 2.66666 6.66671 2.66666Z" fill="black"/>
</symbol><symbol id="icon-twitter" viewBox="0 0 32 32">
  <path fill="#fff" d="M16 0C7.164 0 0 7.164 0 16c0 8.837 7.164 16 16 16 8.837 0 16-7.163 16-16 0-8.836-7.163-16-16-16zm7.944 12.809c-.251 6.516-3.463 10.832-10.992 10.702h-.486c-.447 0-4.543-.443-5.344-1.823 2.479.19 4.247-.406 5.12-1.136-1.048-.289-2.923-.461-3.251-2.848.384.104.618.221 1.299.113-1.307-.824-2.758-1.519-2.679-3.643.311.317 1.164.518 1.46.457-.768-.233-2.149-3.244-.974-4.781 1.984 1.79 4.075 3.482 7.804 3.643.227-2.214 1.24-3.699 3.168-4.325 1.84-.479 3.255.26 3.901 1.138.737-.224 1.453-.466 2.193-.685-.004.833-.569 1.463-.935 1.709.747.165 1.423-.475 1.423-.475-.184.963-1.094 1.725-1.707 1.954z"/>
</symbol><symbol id="icon-up-dir" viewBox="0 0 18 18">
<path d="M3 14H14L8.5 4L3 14Z" fill="black"/>
</symbol><symbol id="icon-user" viewBox="0 0 13 14">
<path d="M6.49996 2.33333C7.69704 2.33333 8.66663 3.3775 8.66663 4.66666C8.66663 5.95583 7.69704 7 6.49996 7C5.30288 7 4.33329 5.95583 4.33329 4.66666C4.33329 3.3775 5.30288 2.33333 6.49996 2.33333ZM6.49996 11.6667C6.49996 11.6667 10.8333 11.6667 10.8333 10.5C10.8333 9.1 8.72079 7.58333 6.49996 7.58333C4.27913 7.58333 2.16663 9.1 2.16663 10.5C2.16663 11.6667 6.49996 11.6667 6.49996 11.6667Z"/>
</symbol></svg>